<svg width="276" height="50" viewBox="0 0 276 50" fill="none" xmlns="http://www.w3.org/2000/svg">
<rect x="1" y="1" width="274" height="48" rx="11" stroke="#395C6B" stroke-width="2"/>
<path d="M33.9184 27.3201C33.6594 27.5711 33.5404 27.9341 33.5994 28.2901L34.4884 33.2101C34.5634 33.6271 34.3874 34.0491 34.0384 34.2901C33.6964 34.5401 33.2414 34.5701 32.8684 34.3701L28.4394 32.0601C28.2854 31.9781 28.1144 31.9341 27.9394 31.9291H27.6684C27.5744 31.9431 27.4824 31.9731 27.3984 32.0191L22.9684 34.3401C22.7494 34.4501 22.5014 34.4891 22.2584 34.4501C21.6664 34.3381 21.2714 33.7741 21.3684 33.1791L22.2584 28.2591C22.3174 27.9001 22.1984 27.5351 21.9394 27.2801L18.3284 23.7801C18.0264 23.4871 17.9214 23.0471 18.0594 22.6501C18.1934 22.2541 18.5354 21.9651 18.9484 21.9001L23.9184 21.1791C24.2964 21.1401 24.6284 20.9101 24.7984 20.5701L26.9884 16.0801C27.0404 15.9801 27.1074 15.8881 27.1884 15.8101L27.2784 15.7401C27.3254 15.6881 27.3794 15.6451 27.4394 15.6101L27.5484 15.5701L27.7184 15.5001H28.1394C28.5154 15.5391 28.8464 15.7641 29.0194 16.1001L31.2384 20.5701C31.3984 20.8971 31.7094 21.1241 32.0684 21.1791L37.0384 21.9001C37.4584 21.9601 37.8094 22.2501 37.9484 22.6501C38.0794 23.0511 37.9664 23.4911 37.6584 23.7801L33.9184 27.3201Z" fill="#395C6B"/>
<path d="M61.88 33.24C60.6667 33.24 59.6467 33.0267 58.82 32.6C57.9933 32.1733 57.3133 31.6067 56.78 30.9L58.22 29.52C58.7533 30.16 59.32 30.6333 59.92 30.94C60.52 31.2333 61.2 31.38 61.96 31.38C62.84 31.38 63.5133 31.18 63.98 30.78C64.46 30.38 64.7 29.8067 64.7 29.06C64.7 28.46 64.5267 28 64.18 27.68C63.8333 27.3467 63.24 27.1067 62.4 26.96L60.88 26.72C60.2133 26.6133 59.6533 26.44 59.2 26.2C58.7467 25.9467 58.38 25.6533 58.1 25.32C57.82 24.9733 57.6133 24.5933 57.48 24.18C57.36 23.7533 57.3 23.3067 57.3 22.84C57.3 21.52 57.7267 20.52 58.58 19.84C59.4333 19.1467 60.6067 18.8 62.1 18.8C63.2067 18.8 64.1467 18.98 64.92 19.34C65.7067 19.6867 66.34 20.18 66.82 20.82L65.42 22.22C65.0333 21.7533 64.5733 21.38 64.04 21.1C63.52 20.8067 62.8733 20.66 62.1 20.66C61.2733 20.66 60.64 20.84 60.2 21.2C59.7733 21.5467 59.56 22.06 59.56 22.74C59.56 23.3133 59.7267 23.7667 60.06 24.1C60.4067 24.42 61.0133 24.6533 61.88 24.8L63.36 25.06C64.6133 25.2867 65.5267 25.7467 66.1 26.44C66.6733 27.12 66.96 27.9533 66.96 28.94C66.96 29.58 66.8467 30.1667 66.62 30.7C66.4067 31.2333 66.08 31.6867 65.64 32.06C65.2133 32.4333 64.68 32.7267 64.04 32.94C63.4133 33.14 62.6933 33.24 61.88 33.24ZM74.6122 33C73.7055 33 73.0389 32.76 72.6122 32.28C72.1855 31.7867 71.9722 31.1533 71.9722 30.38V24.44H68.7922V22.68H71.0522C71.4389 22.68 71.7122 22.6067 71.8722 22.46C72.0322 22.3 72.1122 22.02 72.1122 21.62V19.04H74.1522V22.68H78.5522V24.44H74.1522V31.24H78.5522V33H74.6122ZM89.8244 33C89.1977 33 88.7244 32.84 88.4044 32.52C88.0977 32.2 87.911 31.78 87.8444 31.26H87.7444C87.5444 31.8867 87.1777 32.3733 86.6444 32.72C86.1244 33.0667 85.4577 33.24 84.6444 33.24C83.591 33.24 82.751 32.9667 82.1244 32.42C81.4977 31.86 81.1844 31.0933 81.1844 30.12C81.1844 29.12 81.551 28.36 82.2844 27.84C83.031 27.3067 84.171 27.04 85.7044 27.04H87.6844V26.24C87.6844 24.84 86.9444 24.14 85.4644 24.14C84.7977 24.14 84.2577 24.2733 83.8444 24.54C83.431 24.7933 83.0844 25.1333 82.8044 25.56L81.5044 24.5C81.7977 23.94 82.291 23.46 82.9844 23.06C83.6777 22.6467 84.571 22.44 85.6644 22.44C86.971 22.44 87.9977 22.7533 88.7444 23.38C89.491 24.0067 89.8644 24.9133 89.8644 26.1V31.28H91.1644V33H89.8244ZM85.2644 31.64C85.971 31.64 86.551 31.48 87.0044 31.16C87.4577 30.84 87.6844 30.4267 87.6844 29.92V28.42H85.7444C84.171 28.42 83.3844 28.8933 83.3844 29.84V30.24C83.3844 30.7067 83.551 31.06 83.8844 31.3C84.2177 31.5267 84.6777 31.64 85.2644 31.64ZM93.4966 31.24H96.2366V24.44H93.4966V22.68H98.4166V25.42H98.5366C98.6299 25.06 98.7632 24.7133 98.9366 24.38C99.1099 24.0467 99.3299 23.76 99.5966 23.52C99.8632 23.2667 100.19 23.0667 100.577 22.92C100.963 22.76 101.417 22.68 101.937 22.68H103.177V24.76H101.137C100.337 24.76 99.6832 25 99.1766 25.48C98.6699 25.9467 98.4166 26.58 98.4166 27.38V31.24H102.157V33H93.4966V31.24ZM124.101 31.24H124.001C123.894 31.5067 123.754 31.7667 123.581 32.02C123.421 32.26 123.221 32.4733 122.981 32.66C122.741 32.8333 122.461 32.9733 122.141 33.08C121.821 33.1867 121.448 33.24 121.021 33.24C119.981 33.24 119.141 32.9 118.501 32.22C117.861 31.54 117.541 30.5733 117.541 29.32V22.68H119.721V29C119.721 30.64 120.434 31.46 121.861 31.46C122.141 31.46 122.414 31.4267 122.681 31.36C122.948 31.28 123.188 31.1667 123.401 31.02C123.614 30.8733 123.781 30.6933 123.901 30.48C124.034 30.2533 124.101 29.9867 124.101 29.68V22.68H126.281V33H124.101V31.24ZM133.973 33.24C132.853 33.24 131.886 33.06 131.073 32.7C130.273 32.34 129.626 31.86 129.133 31.26L130.473 30.06C130.926 30.5533 131.433 30.9333 131.993 31.2C132.566 31.4533 133.24 31.58 134.013 31.58C134.72 31.58 135.286 31.46 135.713 31.22C136.153 30.98 136.373 30.6067 136.373 30.1C136.373 29.8867 136.333 29.7067 136.253 29.56C136.173 29.4133 136.06 29.2933 135.913 29.2C135.766 29.1067 135.593 29.0333 135.393 28.98C135.206 28.9267 135.006 28.8867 134.793 28.86L133.153 28.6C132.753 28.5467 132.346 28.46 131.933 28.34C131.52 28.22 131.146 28.0533 130.813 27.84C130.493 27.6133 130.226 27.3267 130.013 26.98C129.813 26.6333 129.713 26.1933 129.713 25.66C129.713 24.6067 130.113 23.8067 130.913 23.26C131.726 22.7133 132.793 22.44 134.113 22.44C135.073 22.44 135.9 22.5867 136.593 22.88C137.3 23.16 137.886 23.5533 138.353 24.06L137.133 25.34C136.866 25.0333 136.486 24.7533 135.993 24.5C135.5 24.2333 134.846 24.1 134.033 24.1C132.58 24.1 131.853 24.56 131.853 25.48C131.853 25.92 132.006 26.2267 132.313 26.4C132.633 26.56 133.006 26.6667 133.433 26.72L135.073 26.98C135.486 27.0467 135.893 27.1333 136.293 27.24C136.706 27.3467 137.073 27.5133 137.393 27.74C137.726 27.9533 137.993 28.2333 138.193 28.58C138.406 28.9267 138.513 29.3667 138.513 29.9C138.513 30.94 138.106 31.76 137.293 32.36C136.493 32.9467 135.386 33.24 133.973 33.24ZM157.938 33.24C157.178 33.24 156.491 33.1133 155.878 32.86C155.278 32.6067 154.764 32.2467 154.338 31.78C153.924 31.3133 153.604 30.7467 153.378 30.08C153.151 29.4133 153.038 28.6667 153.038 27.84C153.038 27.0133 153.151 26.2667 153.378 25.6C153.604 24.9333 153.924 24.3667 154.338 23.9C154.764 23.4333 155.278 23.0733 155.878 22.82C156.491 22.5667 157.178 22.44 157.938 22.44C158.698 22.44 159.378 22.5667 159.978 22.82C160.591 23.0733 161.104 23.4333 161.518 23.9C161.944 24.3667 162.271 24.9333 162.497 25.6C162.724 26.2667 162.838 27.0133 162.838 27.84C162.838 28.6667 162.724 29.4133 162.497 30.08C162.271 30.7467 161.944 31.3133 161.518 31.78C161.104 32.2467 160.591 32.6067 159.978 32.86C159.378 33.1133 158.698 33.24 157.938 33.24ZM157.938 31.52C158.738 31.52 159.371 31.28 159.838 30.8C160.318 30.3067 160.558 29.58 160.558 28.62V27.06C160.558 26.1 160.318 25.38 159.838 24.9C159.371 24.4067 158.738 24.16 157.938 24.16C157.138 24.16 156.498 24.4067 156.018 24.9C155.551 25.38 155.318 26.1 155.318 27.06V28.62C155.318 29.58 155.551 30.3067 156.018 30.8C156.498 31.28 157.138 31.52 157.938 31.52ZM165.61 33V22.68H167.79V24.44H167.89C167.996 24.1733 168.13 23.92 168.29 23.68C168.463 23.4267 168.67 23.2133 168.91 23.04C169.15 22.8533 169.43 22.7067 169.75 22.6C170.07 22.4933 170.443 22.44 170.87 22.44C171.91 22.44 172.75 22.78 173.39 23.46C174.03 24.14 174.35 25.1067 174.35 26.36V33H172.17V26.68C172.17 25.04 171.456 24.22 170.03 24.22C169.75 24.22 169.476 24.26 169.21 24.34C168.943 24.4067 168.703 24.5133 168.49 24.66C168.276 24.8067 168.103 24.9933 167.97 25.22C167.85 25.4467 167.79 25.7067 167.79 26V33H165.61ZM196.514 31.08H196.374C196.254 31.36 196.107 31.6333 195.934 31.9C195.774 32.1533 195.567 32.38 195.314 32.58C195.074 32.78 194.781 32.94 194.434 33.06C194.087 33.18 193.687 33.24 193.234 33.24C191.781 33.24 190.687 32.62 189.954 31.38C189.221 30.14 188.854 28.3867 188.854 26.12C188.854 23.7467 189.274 21.9333 190.114 20.68C190.954 19.4267 192.241 18.8 193.974 18.8C194.654 18.8 195.247 18.8933 195.754 19.08C196.274 19.2667 196.714 19.52 197.074 19.84C197.434 20.1467 197.734 20.5133 197.974 20.94C198.214 21.3533 198.407 21.7933 198.554 22.26L196.534 22.94C196.427 22.6333 196.307 22.3467 196.174 22.08C196.041 21.8 195.874 21.5533 195.674 21.34C195.487 21.1267 195.254 20.96 194.974 20.84C194.707 20.72 194.381 20.66 193.994 20.66C193.021 20.66 192.314 21.04 191.874 21.8C191.447 22.5467 191.234 23.56 191.234 24.84V27.06C191.234 27.7 191.281 28.2867 191.374 28.82C191.467 29.3533 191.621 29.8133 191.834 30.2C192.061 30.5733 192.347 30.8667 192.694 31.08C193.054 31.2933 193.487 31.4 193.994 31.4C194.807 31.4 195.427 31.16 195.854 30.68C196.294 30.1867 196.514 29.56 196.514 28.8V27.54H193.814V25.86H198.554V33H196.514V31.08ZM206.546 20.8C205.986 20.8 205.593 20.6867 205.366 20.46C205.153 20.2333 205.046 19.9533 205.046 19.62V19.2C205.046 18.8667 205.153 18.5867 205.366 18.36C205.593 18.1333 205.98 18.02 206.526 18.02C207.086 18.02 207.473 18.1333 207.686 18.36C207.913 18.5867 208.026 18.8667 208.026 19.2V19.62C208.026 19.9533 207.913 20.2333 207.686 20.46C207.473 20.6867 207.093 20.8 206.546 20.8ZM201.926 31.24H205.446V24.44H201.926V22.68H207.626V31.24H210.926V33H201.926V31.24ZM218.518 33C217.612 33 216.945 32.76 216.518 32.28C216.092 31.7867 215.878 31.1533 215.878 30.38V24.44H212.698V22.68H214.958C215.345 22.68 215.618 22.6067 215.778 22.46C215.938 22.3 216.018 22.02 216.018 21.62V19.04H218.058V22.68H222.458V24.44H218.058V31.24H222.458V33H218.518ZM232.211 26.86H227.571V33H225.331V19.04H227.571V24.98H232.211V19.04H234.451V33H232.211V26.86ZM244.023 31.24H243.923C243.816 31.5067 243.676 31.7667 243.503 32.02C243.343 32.26 243.143 32.4733 242.903 32.66C242.663 32.8333 242.383 32.9733 242.063 33.08C241.743 33.1867 241.369 33.24 240.943 33.24C239.903 33.24 239.063 32.9 238.423 32.22C237.783 31.54 237.463 30.5733 237.463 29.32V22.68H239.643V29C239.643 30.64 240.356 31.46 241.783 31.46C242.063 31.46 242.336 31.4267 242.603 31.36C242.869 31.28 243.109 31.1667 243.323 31.02C243.536 30.8733 243.703 30.6933 243.823 30.48C243.956 30.2533 244.023 29.9867 244.023 29.68V22.68H246.203V33H244.023V31.24ZM249.455 18.2H251.635V24.44H251.755C252.062 23.8133 252.468 23.3267 252.975 22.98C253.482 22.62 254.115 22.44 254.875 22.44C256.088 22.44 257.055 22.8933 257.775 23.8C258.495 24.7067 258.855 26.0533 258.855 27.84C258.855 29.6267 258.495 30.9733 257.775 31.88C257.055 32.7867 256.088 33.24 254.875 33.24C254.115 33.24 253.482 33.0667 252.975 32.72C252.468 32.36 252.062 31.8667 251.755 31.24H251.635V33H249.455V18.2ZM253.975 31.46C254.802 31.46 255.435 31.2067 255.875 30.7C256.328 30.1933 256.555 29.52 256.555 28.68V27C256.555 26.16 256.328 25.4867 255.875 24.98C255.435 24.4733 254.802 24.22 253.975 24.22C253.655 24.22 253.355 24.26 253.075 24.34C252.795 24.42 252.548 24.54 252.335 24.7C252.122 24.86 251.948 25.06 251.815 25.3C251.695 25.5267 251.635 25.8 251.635 26.12V29.56C251.635 29.88 251.695 30.16 251.815 30.4C251.948 30.6267 252.122 30.82 252.335 30.98C252.548 31.14 252.795 31.26 253.075 31.34C253.355 31.42 253.655 31.46 253.975 31.46Z" fill="#395C6B"/>
</svg>
