<svg width="40" height="40" viewBox="0 0 40 40" fill="none" xmlns="http://www.w3.org/2000/svg">
<rect width="40" height="40" rx="12" fill="#E27152"/>
<path fill-rule="evenodd" clip-rule="evenodd" d="M0 12C0 11.1285 0.092901 10.2787 0.26934 9.45998L0 20.5063V12ZM0.26934 9.45998L0.5 0H12C6.24407 0 1.43466 4.05252 0.26934 9.45998ZM40 12C40 5.37258 34.6274 0 28 0H40V12ZM28.955 39.9626C35.1359 39.4759 40 34.306 40 28V39.9648L28.955 39.9626ZM11.0666 39.9642L13.6773 39.9648C13.6773 39.9648 15.0438 39.5199 15.0438 38.9783C15.0438 38.7551 15.04 38.2971 15.035 37.7023C15.029 36.9941 15.0214 36.0917 15.0167 35.1604C9.45262 36.4009 8.27853 32.7409 8.27853 32.7409C7.36874 30.3707 6.05788 29.7404 6.05788 29.7404C4.24326 28.4677 6.19466 28.4939 6.19466 28.4939C8.20302 28.6385 9.26053 30.607 9.26053 30.607C11.0443 33.742 13.9393 32.8357 15.0806 32.3117C15.2601 30.9864 15.7784 30.0817 16.3504 29.5696C11.9081 29.0511 7.23825 27.2928 7.23825 19.4353C7.23825 17.1965 8.01954 15.3672 9.29894 13.9311C9.09129 13.4146 8.40671 11.329 9.49269 8.50435C9.49269 8.50435 11.1722 7.95322 14.9942 10.6063C16.5895 10.152 18.3005 9.92412 20.0002 9.91631C21.6999 9.92412 23.4121 10.152 25.0105 10.6063C28.8278 7.95322 30.505 8.50435 30.505 8.50435C31.5936 11.329 30.9087 13.4146 30.7011 13.9311C31.9834 15.3672 32.7594 17.1965 32.7594 19.4353C32.7594 27.3115 28.0806 29.0457 23.6271 29.5533C24.3444 30.1897 24.9836 31.4376 24.9836 33.3508C24.9836 35.1828 24.9733 36.7761 24.9664 37.8338L24.9664 37.8349L24.9664 37.8357L24.9664 37.8362L24.9664 37.8367V37.837V37.8374V37.8377V37.8381V37.8383V37.8385V37.8386V37.8388C24.963 38.3626 24.9605 38.7546 24.9605 38.9783C24.9605 39.524 26.3343 39.962 26.3343 39.962L28.955 39.9626C28.6399 39.9874 28.3214 40 28 40H12C11.6859 40 11.3746 39.9879 11.0666 39.9642ZM0 28C0 34.3133 4.87541 39.4879 11.0666 39.9642L0 39.962V28ZM7.29189 29.3639C7.43404 29.4331 7.59007 29.4029 7.63404 29.302C7.68429 29.2008 7.60164 29.0619 7.45652 28.9957C7.31206 28.9261 7.15569 28.955 7.11272 29.0589C7.06578 29.1601 7.1471 29.2976 7.29189 29.3639ZM8.44264 30.2192C8.34743 30.3089 8.16132 30.2672 8.03504 30.1254C7.90446 29.9838 7.88 29.7945 7.97653 29.7034C8.07471 29.6136 8.2552 29.6556 8.38611 29.7972C8.51669 29.9404 8.54215 30.1284 8.44264 30.2192ZM8.78381 31.2133C8.90744 31.3939 9.10744 31.4749 9.22976 31.3885C9.35471 31.3001 9.35471 31.0835 9.23273 30.9C9.10744 30.7207 8.91042 30.6427 8.78645 30.7295C8.66149 30.8162 8.66149 31.0328 8.78381 31.2133ZM10.3081 32.5183C10.1987 32.641 9.96563 32.6081 9.79505 32.4406C9.62051 32.2769 9.57191 32.0445 9.68166 31.9218C9.79241 31.7987 10.0268 31.8334 10.1987 31.9995C10.3719 32.1629 10.4248 32.3969 10.3081 32.5183ZM11.2968 33.3379C11.523 33.4055 11.7474 33.3332 11.7957 33.1742C11.8426 33.0125 11.6945 32.8275 11.4691 32.7583C11.2413 32.686 11.0159 32.7613 10.9689 32.9213C10.9233 33.0821 11.0711 33.2683 11.2968 33.3379ZM13.4294 33.296C13.435 33.4635 13.2433 33.6023 13.0059 33.6053C12.7673 33.6107 12.5742 33.4752 12.5716 33.3105C12.5716 33.1413 12.759 33.0038 12.9977 32.9998C13.235 32.9951 13.4294 33.1296 13.4294 33.296ZM14.5775 33.4086C14.8132 33.3638 14.9782 33.1961 14.9498 33.0326C14.9197 32.8666 14.7084 32.7684 14.4724 32.8101C14.241 32.8534 14.0731 33.0212 14.1018 33.1887C14.1312 33.3507 14.3458 33.4516 14.5775 33.4086Z" fill="#FFFBF9"/>
</svg>
