<svg width="40" height="40" viewBox="0 0 40 40" fill="none" xmlns="http://www.w3.org/2000/svg">
<rect width="40" height="40" rx="12" fill="#E27152"/>
<path fill-rule="evenodd" clip-rule="evenodd" d="M13.319 10.8227C13.319 12.3918 12.1378 13.6473 10.2414 13.6473H10.2066C8.38065 13.6473 7.2002 12.3918 7.2002 10.8227C7.2002 9.2204 8.41661 8 10.2772 8C12.1378 8 13.2837 9.2204 13.319 10.8227ZM12.9607 15.8779V32.2196H7.52179V15.8779H12.9607ZM32.5754 32.2196L32.5756 22.8497C32.5756 17.8303 29.8924 15.4941 26.3133 15.4941C23.4256 15.4941 22.1327 17.0803 21.4109 18.193V15.8783H15.9713C16.043 17.4117 15.9713 32.22 15.9713 32.22H21.4109V23.0935C21.4109 22.6051 21.4462 22.1179 21.59 21.7682C21.9831 20.7925 22.8781 19.7823 24.3807 19.7823C26.3496 19.7823 27.1366 21.2808 27.1366 23.4768V32.2196H32.5754Z" fill="white"/>
</svg>
