<svg width="205" height="60" viewBox="0 0 205 60" fill="none" xmlns="http://www.w3.org/2000/svg">
<g clip-path="url(#clip0_224_574)">
<path fill-rule="evenodd" clip-rule="evenodd" d="M174.719 16.5649C174.719 16.5649 180.995 2.96313 181.191 2.6662C181.656 1.94829 182.392 1.21003 183.771 0.693457C184.8 0.311108 186.46 0 189.159 0C192.395 0 194.282 0.477874 195.376 1.00869C197.778 2.17199 198.219 3.83157 198.225 5.29994L198.227 6.75815L199.031 6.74593C200.277 6.74593 201.298 6.95746 202.164 7.65097C202.728 8.10248 203.323 8.79392 203.692 10.0813C203.922 10.8927 204.096 12.1984 204.096 14.3034C204.096 16.3717 203.922 17.7078 203.683 18.5783C203.576 18.9728 203.45 19.3125 203.31 19.6094C203.295 19.8922 203.207 20.1728 203.043 20.425L198.235 27.7362V31.9807C199.439 31.9909 200.43 32.2085 201.274 32.8858C201.839 33.3372 202.435 34.0287 202.801 35.3161C203.033 36.1296 203.208 37.4332 203.208 39.5382C203.208 42.0742 202.927 43.5528 202.595 44.4293C202.252 45.3343 195.047 57.3619 194.894 57.4921C194.894 57.4921 192.826 59.235 190.21 59.235H180.286C178.855 59.235 177.1 58.7673 175.907 57.4474C175.114 56.5688 174.53 55.3058 174.53 53.4795V17.3275C174.53 17.0611 174.595 16.8008 174.719 16.5649Z" fill="#E27152"/>
<path fill-rule="evenodd" clip-rule="evenodd" d="M131.392 22.5685C132.522 23.7867 133.222 25.4544 133.222 27.6326C133.222 29.8168 133.078 38.501 133.006 42.6701C132.982 44.1466 132.522 45.5824 131.682 46.7966C129.338 50.2174 124.595 57.606 124.577 57.6324C124.577 57.6324 123.71 59.2778 119.004 59.2778H87.8529C86.2017 59.2778 84.8817 58.7042 83.9585 57.7666C83.0457 56.8393 82.4961 55.5234 82.4961 53.9086C82.4961 47.9558 82.4961 28.5782 82.4961 28.6148C82.4961 28.6148 82.5025 26.8272 83.6209 25.013C84.5769 23.4613 91.9977 10.608 92.5737 9.75993C93.7385 8.04545 96.5577 7.14655 99.0609 7.14655C101.565 7.14655 119.138 7.22997 123.023 7.22997C127.06 7.22997 129.411 8.55801 130.861 10.0975C133.05 12.4222 133.222 15.5907 133.222 17.1933C133.222 18.739 133.088 20.3517 132.219 21.6228C131.998 21.9462 131.73 22.2675 131.392 22.5685Z" fill="#E27152"/>
<path fill-rule="evenodd" clip-rule="evenodd" d="M175.026 22.5685C176.157 23.7867 176.856 25.4544 176.856 27.6326C176.856 29.8168 176.712 38.501 176.641 42.6701C176.616 44.1466 176.157 45.5824 175.317 46.7966C172.972 50.2174 168.229 57.606 168.211 57.6324C168.211 57.6324 167.345 59.2778 162.638 59.2778H131.487C129.836 59.2778 128.516 58.7042 127.593 57.7666C126.679 56.8393 126.13 55.5234 126.13 53.9086C126.13 47.9558 126.13 28.5782 126.13 28.6148C126.13 28.6148 126.137 26.8272 127.255 25.013C128.211 23.4613 135.632 10.608 136.208 9.75993C137.373 8.04545 140.192 7.14655 142.695 7.14655C145.199 7.14655 162.773 7.22997 166.657 7.22997C170.694 7.22997 173.045 8.55801 174.495 10.0975C176.683 12.4222 176.856 15.5907 176.856 17.1933C176.856 18.739 176.722 20.3517 175.854 21.6228C175.632 21.9462 175.363 22.2675 175.026 22.5685Z" fill="#E27152"/>
<path d="M184.42 9.92063L184.357 5.32432C184.357 4.18948 184.434 3.11163 189.541 3.11163C194.576 3.11163 195.073 4.24034 195.077 5.28162L195.086 9.92063L199.024 9.85551C200.159 9.85551 200.95 9.62167 200.95 14.2728C200.95 18.44 200.257 18.9424 199.35 19.0033V19.0074H195.086V33.2762C195.086 35.1392 196.144 35.1513 196.144 35.1513L198.134 35.0904C199.27 35.0904 200.062 34.8564 200.062 39.5097C200.062 44.1609 199.195 44.2463 198.134 44.2463C198.134 44.2463 189.053 44.2463 187.051 44.2463C184.098 44.2463 184.42 42.0254 184.42 40.677V19.0074L182.894 19.0135C181.759 19.0135 180.969 19.2474 180.969 14.5942C180.969 9.94303 181.833 9.85759 182.894 9.85759L184.42 9.92063Z" fill="#FFFBF9"/>
<path fill-rule="evenodd" clip-rule="evenodd" d="M119.968 32.0214C119.968 31.7978 119.881 31.5862 119.722 31.4275C119.566 31.271 119.352 31.1835 119.131 31.1835C115.299 31.1937 99.6594 31.2323 99.6594 31.2323C96.7346 31.2323 93.7306 29.7925 93.7306 26.8822C93.7306 25.8938 93.6538 17.1791 93.6538 16.8761C93.6538 12.0276 96.4986 10 99.7442 10H123.621C130.695 10 130.68 16.1745 130.68 18.0394C130.68 19.2495 130.914 20.8765 126.263 20.8765C121.61 20.8765 121.139 20.1809 121.139 19.6298C121.139 19.0786 120.77 18.7715 120.387 18.7715C120.005 18.7715 108.746 18.7878 105.189 18.7878C104.924 18.7878 104.672 18.8915 104.485 19.0786C104.3 19.2637 104.195 19.5159 104.195 19.7802C104.195 20.2969 104.195 21.3178 104.195 21.8344C104.195 22.0967 104.3 22.349 104.485 22.536C104.672 22.7231 104.924 22.8269 105.189 22.8269C109.438 22.8269 125.879 22.8269 125.879 22.8269C128.803 22.8269 130.68 24.2647 130.68 27.177V40.3314C130.68 42.9162 128.677 44.4456 125.431 44.4456H100.255C95.5186 44.4456 93.7306 41.6736 93.7306 38.2102V35.2429C93.7306 34.6083 94.2778 33.199 98.9314 33.199C103.583 33.199 103.802 33.8294 104.059 34.3399C104.311 34.8463 104.705 35.2429 105.189 35.2429C105.671 35.2429 115.852 35.247 119.131 35.249C119.354 35.249 119.566 35.1595 119.724 35.003C119.881 34.8463 119.968 34.6328 119.968 34.4111C119.968 33.7114 119.968 32.721 119.968 32.0214Z" fill="#FFFBF9"/>
<path fill-rule="evenodd" clip-rule="evenodd" d="M163.602 32.0214C163.602 31.7978 163.515 31.5862 163.356 31.4275C163.199 31.271 162.986 31.1835 162.764 31.1835C158.933 31.1937 143.294 31.2323 143.294 31.2323C140.369 31.2323 137.365 29.7925 137.365 26.8822C137.365 25.8938 137.287 17.1791 137.287 16.8761C137.287 12.0276 140.133 10 143.378 10H167.255C174.328 10 174.314 16.1745 174.314 18.0394C174.314 19.2495 174.548 20.8765 169.897 20.8765C165.243 20.8765 164.774 20.1809 164.774 19.6298C164.774 19.0786 164.404 18.7715 164.021 18.7715C163.639 18.7715 152.38 18.7878 148.821 18.7878C148.558 18.7878 148.306 18.8915 148.119 19.0786C147.934 19.2637 147.829 19.5159 147.829 19.7802C147.829 20.2969 147.829 21.3178 147.829 21.8344C147.829 22.0967 147.934 22.349 148.119 22.536C148.306 22.7231 148.558 22.8269 148.821 22.8269C153.071 22.8269 169.512 22.8269 169.512 22.8269C172.437 22.8269 174.314 24.2647 174.314 27.177V40.3314C174.314 42.9162 172.311 44.4456 169.065 44.4456H143.889C139.153 44.4456 137.365 41.6736 137.365 38.2102V35.2429C137.365 34.6083 137.912 33.199 142.565 33.199C147.216 33.199 147.436 33.8294 147.692 34.3399C147.945 34.8463 148.339 35.2429 148.821 35.2429C149.305 35.2429 159.486 35.247 162.764 35.249C162.988 35.249 163.199 35.1595 163.358 35.003C163.514 34.8463 163.602 34.6328 163.602 34.4111C163.602 33.7114 163.602 32.721 163.602 32.0214Z" fill="#FFFBF9"/>
<path fill-rule="evenodd" clip-rule="evenodd" d="M17.8693 48.3999C17.917 48.3295 17.922 48.2385 17.8822 48.1627C17.8423 48.088 17.7642 48.0415 17.679 48.0415C15.8766 48.0415 8.854 48.0415 4.21981 48.0415C3.09995 48.0415 2.0261 47.5965 1.23474 46.8039C0.443269 46.0114 -0.000972848 44.9373 1.59971e-06 43.8178C0.00476558 37.9851 0.013211 27.7804 0.0161344 24.2259C0.0167841 23.3976 0.233979 22.5845 0.646064 21.8655C2.13242 19.2756 5.88288 12.7392 7.8359 9.33513C8.5936 8.01425 9.99968 7.20001 11.5222 7.20001H55.1504C56.0686 7.20001 56.9142 7.69917 57.3593 8.50145C57.8042 9.30489 57.7782 10.2858 57.2913 11.0643C55.6719 13.6531 53.6507 16.885 52.5995 18.5654C52.4566 18.7939 52.4489 19.0819 52.5796 19.3179C52.7102 19.5539 52.9586 19.7001 53.228 19.7001C55.5584 19.7001 60.4387 19.7001 63.8578 19.7001C65.9118 19.7001 67.5768 21.3653 67.5768 23.4192V42.2153C67.5768 44.3158 67.0446 46.3827 66.0297 48.2212C64.7512 50.5383 62.6765 53.8211 61.3682 56.1923C60.3441 58.048 58.3923 59.2 56.2729 59.2H15.3266C14.3882 59.2 13.5266 58.6814 13.0871 57.852C12.6476 57.0238 12.7022 56.019 13.2288 55.2427C15.0139 52.6106 17.157 49.4501 17.8693 48.3999Z" fill="#E27152"/>
<path fill-rule="evenodd" clip-rule="evenodd" d="M24.1798 46.4282C23.3234 46.4282 22.5207 46.845 22.0274 47.5445C20.6666 49.4749 17.8853 53.4204 16.4855 55.4061C16.3219 55.6389 16.3014 55.9421 16.432 56.1944C16.5627 56.4466 16.8229 56.6047 17.1066 56.6047C23.3746 56.6047 47.6914 56.6047 55.3262 56.6047C56.7335 56.6047 58.0334 55.8522 58.735 54.632C59.7342 52.8942 61.4505 50.3682 62.4793 48.5785C62.7347 48.1345 62.734 47.5877 62.4774 47.1449C62.2209 46.701 61.7474 46.4282 61.2351 46.4282C53.5164 46.4282 30.0904 46.4282 24.1798 46.4282Z" fill="#FFFBF9"/>
<path fill-rule="evenodd" clip-rule="evenodd" d="M13.4034 35.4829C11.964 35.4872 10.6061 36.152 9.71949 37.2867C8.45397 38.9055 6.58456 41.2971 5.19629 43.0728C4.85047 43.5146 4.78724 44.1155 5.03334 44.62C5.27933 45.1256 5.79179 45.4451 6.35329 45.4451H19.564C20.0304 44.4608 21.0224 43.8329 22.1121 43.8329C27.3367 43.8329 42.553 43.8329 47.6437 43.8329C48.6882 43.8329 49.6576 43.2894 50.2029 42.3983C51.1718 40.8164 52.72 38.2883 53.6764 36.7259C53.8478 36.4455 53.8544 36.0947 53.6933 35.8088C53.5324 35.5219 53.2291 35.3454 52.9007 35.3465C46.2583 35.3692 21.1369 35.4559 13.4034 35.4829Z" fill="#FFFBF9"/>
<path fill-rule="evenodd" clip-rule="evenodd" d="M53.9815 41.7226C53.7167 42.1482 53.7033 42.6842 53.9468 43.1226C54.1904 43.5611 54.6523 43.8329 55.1537 43.8329H62.5623C63.1339 43.8329 63.6823 43.6055 64.0864 43.2017C64.4907 42.7967 64.7178 42.2489 64.7178 41.6772C64.7178 37.5358 64.7178 28.5145 64.7178 24.4078C64.7178 23.2406 63.772 22.2953 62.6053 22.2953C55.8407 22.2953 34.7654 22.2953 28.0449 22.2953C26.7487 22.2953 25.5423 22.958 24.847 24.0515C23.6209 25.9809 22.1937 29.0558 20.9864 30.9549C20.7719 31.2917 20.7583 31.7194 20.9508 32.0702C21.1432 32.421 21.5113 32.6386 21.9111 32.6386H54.7275C55.7174 32.6386 56.6296 33.1757 57.1104 34.0407C57.5911 34.9058 57.565 35.9637 57.0419 36.8049C55.9997 38.4799 54.8433 40.3378 53.9815 41.7226Z" fill="#FFFBF9"/>
<path fill-rule="evenodd" clip-rule="evenodd" d="M47.9466 19.7C48.2303 19.7 48.4949 19.5561 48.65 19.319C49.4693 18.0641 52.1143 14.0136 53.5595 11.8005C53.7511 11.507 53.7666 11.1314 53.5997 10.8238C53.4327 10.5153 53.1104 10.3236 52.7599 10.3236C46.3914 10.3236 24.4849 10.3236 15.3719 10.3236C14.3039 10.3236 13.2798 10.747 12.5246 11.5027C11.7695 12.2574 11.3452 13.2816 11.3452 14.3503C11.3452 18.3586 11.3452 24.489 11.3452 28.5903C11.3452 29.712 11.8045 30.7838 12.6161 31.558C13.4277 32.3322 14.5207 32.7393 15.6409 32.6862C15.6411 32.6862 16.1687 32.6862 16.1687 32.6862C16.1825 32.5726 20.4303 25.2392 22.7749 21.6435C23.566 20.4309 24.9162 19.7 26.3643 19.7C31.8398 19.7 45.3027 19.7 47.9466 19.7Z" fill="#FFFBF9"/>
</g>
<defs>
<clipPath id="clip0_224_574">
<rect width="204.8" height="60" fill="white"/>
</clipPath>
</defs>
</svg>
