<svg width="40" height="40" viewBox="0 0 40 40" fill="none" xmlns="http://www.w3.org/2000/svg">
<rect width="40" height="40" rx="12" fill="#E27152"/>
<path d="M20.1389 15.5863L20.1931 16.4946L19.2899 16.3834C16.0023 15.9571 13.1301 14.5112 10.6915 12.0829L9.4993 10.878L9.19222 11.7677C8.54192 13.7512 8.95739 15.8458 10.3122 17.2547C11.0347 18.0332 10.8722 18.1444 9.62575 17.681C9.19222 17.5327 8.81287 17.4215 8.77675 17.4771C8.6503 17.6069 9.08383 19.2937 9.42705 19.961C9.89671 20.8879 10.8541 21.7962 11.9018 22.3338L12.7869 22.7601L11.7392 22.7787C10.7276 22.7787 10.6915 22.7972 10.7999 23.1865C11.1612 24.3914 12.5882 25.6704 14.1778 26.2265L15.2978 26.6158L14.3224 27.209C12.8772 28.0617 11.1792 28.5436 9.48124 28.5807C8.66836 28.5992 8 28.6734 8 28.729C8 28.9144 10.2038 29.9524 11.4863 30.3603C15.3339 31.5652 19.9041 31.0461 23.3362 28.9885C25.7749 27.5241 28.2135 24.6138 29.3515 21.7962C29.9657 20.2947 30.5798 17.5512 30.5798 16.2351C30.5798 15.3824 30.634 15.2712 31.6456 14.2517C32.2417 13.6585 32.8017 13.0097 32.9101 12.8243C33.0907 12.4721 33.0727 12.4721 32.1514 12.7873C30.616 13.3434 30.3992 13.2692 31.1579 12.4351C31.7179 11.8419 32.3862 10.7667 32.3862 10.4516C32.3862 10.396 32.1153 10.4887 31.8082 10.6555C31.483 10.8409 30.7605 11.1189 30.2186 11.2858L29.2431 11.6009L28.358 10.9892C27.8703 10.6555 27.1838 10.2848 26.8226 10.1735C25.9013 9.91403 24.4923 9.9511 23.6614 10.2477C21.4034 11.0819 19.9764 13.2321 20.1389 15.5863Z" fill="white"/>
</svg>
